<svg width="50" height="50" viewBox="0 0 50 50" fill="none" xmlns="http://www.w3.org/2000/svg">
<rect width="50" height="50" rx="25" fill="white"/>
<path d="M29.6337 15.366L33.3838 19.116C33.6181 19.3504 33.7497 19.6683 33.7497 19.9997C33.7497 20.3312 33.6181 20.6491 33.3838 20.8835L31.4425 22.8272C32.9811 24.5006 33.8081 26.7071 33.7484 28.9795C33.6887 31.252 32.7469 33.412 31.1225 35.0022L33.75 34.9997C34.0815 34.9997 34.3995 35.1314 34.6339 35.3659C34.8683 35.6003 35 35.9182 35 36.2497C35 36.5813 34.8683 36.8992 34.6339 37.1336C34.3995 37.368 34.0815 37.4997 33.75 37.4997H16.25C15.9185 37.4997 15.6005 37.368 15.3661 37.1336C15.1317 36.8992 15 36.5813 15 36.2497C15 35.9182 15.1317 35.6003 15.3661 35.3659C15.6005 35.1314 15.9185 34.9997 16.25 34.9997H17.5V33.7497C17.1685 33.7497 16.8505 33.618 16.6161 33.3836C16.3817 33.1492 16.25 32.8313 16.25 32.4997C16.25 32.1682 16.3817 31.8503 16.6161 31.6159C16.8505 31.3814 17.1685 31.2497 17.5 31.2497H20C20.3315 31.2497 20.6495 31.3814 20.8839 31.6159C21.1183 31.8503 21.25 32.1682 21.25 32.4997C21.25 32.8313 21.1183 33.1492 20.8839 33.3836C20.6495 33.618 20.3315 33.7497 20 33.7497V34.9997H25C26.2051 35 27.3847 34.6518 28.3965 33.9971C29.4083 33.3424 30.2093 32.4092 30.7029 31.3098C31.1965 30.2103 31.3618 28.9917 31.1787 27.8005C30.9957 26.6093 30.4722 25.4965 29.6713 24.596L25.8837 28.3835C25.6493 28.6178 25.3315 28.7495 25 28.7495C24.6685 28.7495 24.3507 28.6178 24.1163 28.3835L23.125 27.3935L22.1337 28.3835C22.0184 28.5029 21.8805 28.5981 21.728 28.6636C21.5755 28.7291 21.4115 28.7636 21.2455 28.765C21.0795 28.7665 20.9149 28.7349 20.7613 28.672C20.6077 28.6092 20.4681 28.5163 20.3508 28.399C20.2334 28.2816 20.1406 28.142 20.0777 27.9884C20.0149 27.8348 19.9832 27.6702 19.9847 27.5042C19.9861 27.3383 20.0206 27.1742 20.0861 27.0217C20.1516 26.8692 20.2469 26.7313 20.3663 26.616L21.3562 25.6247L20.3663 24.6335C20.1319 24.3991 20.0003 24.0812 20.0003 23.7497C20.0003 23.4183 20.1319 23.1004 20.3663 22.866L27.8663 15.366C28.1007 15.1316 28.4185 15 28.75 15C29.0815 15 29.3993 15.1316 29.6337 15.366ZM32.1338 12.866L35.8838 16.616C36.0031 16.7313 36.0984 16.8692 36.1639 17.0217C36.2294 17.1742 36.2639 17.3383 36.2653 17.5042C36.2668 17.6702 36.2351 17.8348 36.1723 17.9884C36.1094 18.142 36.0166 18.2816 35.8992 18.399C35.7819 18.5163 35.6423 18.6092 35.4887 18.672C35.3351 18.7349 35.1705 18.7665 35.0045 18.765C34.8385 18.7636 34.6745 18.7291 34.522 18.6636C34.3695 18.5981 34.2316 18.5029 34.1162 18.3835L30.3662 14.6335C30.2469 14.5182 30.1516 14.3802 30.0861 14.2277C30.0206 14.0752 29.9861 13.9112 29.9847 13.7452C29.9832 13.5793 30.0149 13.4147 30.0777 13.261C30.1406 13.1074 30.2334 12.9679 30.3508 12.8505C30.4681 12.7331 30.6077 12.6403 30.7613 12.5775C30.9149 12.5146 31.0795 12.483 31.2455 12.4844C31.4115 12.4859 31.5755 12.5203 31.728 12.5859C31.8805 12.6514 32.0184 12.7466 32.1338 12.866Z" fill="#07130E"/>
</svg>
