<svg width="36" height="32" viewBox="0 0 36 32" fill="none" xmlns="http://www.w3.org/2000/svg">
<path d="M18 0C19.0609 0 20.0783 0.421427 20.8284 1.17157C21.5786 1.92172 22 2.93913 22 4C22 5.06087 21.5786 6.07828 20.8284 6.82843C20.0783 7.57857 19.0609 8 18 8C16.9391 8 15.9217 7.57857 15.1716 6.82843C14.4214 6.07828 14 5.06087 14 4C14 2.93913 14.4214 1.92172 15.1716 1.17157C15.9217 0.421427 16.9391 0 18 0ZM24 19.5C24 21.0625 23.2062 22.4375 22 23.2437V26H14V23.2437C12.7937 22.4375 12 21.0625 12 19.5V17C12 13.6875 14.6875 11 18 11C21.3125 11 24 13.6875 24 17V19.5ZM25 26V24.2938C26.2437 22.8875 27 21.0312 27 19V17C27 15.3313 26.5438 13.775 25.7563 12.4312C26.45 12.15 27.2062 12 28 12C31.3125 12 34 14.6875 34 18V20C34 21.4813 33.1937 22.775 32 23.4625V26H25ZM4 23.4625C2.80625 22.775 2 21.4813 2 20V18C2 14.6875 4.6875 12 8 12C8.79375 12 9.55 12.1562 10.2437 12.4312C9.45625 13.7687 9 15.3313 9 17V19C9 21.0312 9.75625 22.8813 11 24.2938V26H4V23.4625ZM8 2C8.45963 2 8.91475 2.09053 9.33939 2.26642C9.76403 2.44231 10.1499 2.70012 10.4749 3.02513C10.7999 3.35013 11.0577 3.73597 11.2336 4.16061C11.4095 4.58525 11.5 5.04037 11.5 5.5C11.5 5.95963 11.4095 6.41475 11.2336 6.83939C11.0577 7.26403 10.7999 7.64987 10.4749 7.97487C10.1499 8.29988 9.76403 8.55769 9.33939 8.73358C8.91475 8.90947 8.45963 9 8 9C7.54037 9 7.08525 8.90947 6.66061 8.73358C6.23597 8.55769 5.85013 8.29988 5.52513 7.97487C5.20012 7.64987 4.94231 7.26403 4.76642 6.83939C4.59053 6.41475 4.5 5.95963 4.5 5.5C4.5 5.04037 4.59053 4.58525 4.76642 4.16061C4.94231 3.73597 5.20012 3.35013 5.52513 3.02513C5.85013 2.70012 6.23597 2.44231 6.66061 2.26642C7.08525 2.09053 7.54037 2 8 2ZM28 2C28.4596 2 28.9148 2.09053 29.3394 2.26642C29.764 2.44231 30.1499 2.70012 30.4749 3.02513C30.7999 3.35013 31.0577 3.73597 31.2336 4.16061C31.4095 4.58525 31.5 5.04037 31.5 5.5C31.5 5.95963 31.4095 6.41475 31.2336 6.83939C31.0577 7.26403 30.7999 7.64987 30.4749 7.97487C30.1499 8.29988 29.764 8.55769 29.3394 8.73358C28.9148 8.90947 28.4596 9 28 9C27.5404 9 27.0852 8.90947 26.6606 8.73358C26.236 8.55769 25.8501 8.29988 25.5251 7.97487C25.2001 7.64987 24.9423 7.26403 24.7664 6.83939C24.5905 6.41475 24.5 5.95963 24.5 5.5C24.5 5.04037 24.5905 4.58525 24.7664 4.16061C24.9423 3.73597 25.2001 3.35013 25.5251 3.02513C25.8501 2.70012 26.236 2.44231 26.6606 2.26642C27.0852 2.09053 27.5404 2 28 2ZM1.5 29H34.5C35.3312 29 36 29.6688 36 30.5C36 31.3312 35.3312 32 34.5 32H1.5C0.66875 32 0 31.3312 0 30.5C0 29.6688 0.66875 29 1.5 29Z" fill="black"/>
</svg>
