<svg width="50" height="50" viewBox="0 0 50 50" fill="none" xmlns="http://www.w3.org/2000/svg">
<rect width="50" height="50" rx="25" fill="white"/>
<path d="M30.7445 25.2945C33.1107 25.2945 35.1464 23.1816 35.1464 20.4302C35.1464 17.712 33.1 15.6982 30.7445 15.6982C28.3895 15.6982 26.3425 17.7559 26.3425 20.4522C26.3425 23.1816 28.3782 25.2945 30.7445 25.2945ZM18.0775 25.5479C20.1245 25.5479 21.9079 23.6986 21.9079 21.3104C21.9079 18.9447 20.1132 17.1945 18.0775 17.1945C16.0311 17.1945 14.2257 18.9886 14.237 21.3329C14.237 23.6986 16.0198 25.5479 18.078 25.5479M11.9371 35.4854H20.3007C19.1564 33.8236 20.5541 30.4781 22.9204 28.6513C21.6989 27.837 20.1245 27.2316 18.0668 27.2316C13.1034 27.2311 10 30.8954 10 33.9441C10 34.9352 10.5502 35.4854 11.9371 35.4854ZM23.8225 35.4854H37.6557C39.3834 35.4854 40 34.9899 40 34.0213C40 31.182 36.445 27.2643 30.7337 27.2643C25.0332 27.2643 21.4782 31.182 21.4782 34.0218C21.4782 34.9899 22.0943 35.4854 23.8225 35.4854Z" fill="#07130E"/>
</svg>
