<svg width="36" height="36" viewBox="0 0 36 36" fill="none" xmlns="http://www.w3.org/2000/svg">
<path d="M29.556 12.8821C26.46 13.9141 22.3755 14.5006 18 14.5006C13.6245 14.5006 9.54 13.9141 6.444 12.8806C5.205 12.4696 4.011 11.9476 3 11.2891V17.7466C3 20.5081 9.7155 22.7461 18 22.7461C26.2845 22.7461 33 20.5081 33 17.7466V11.2876C31.989 11.9476 30.7965 12.4681 29.5545 12.8821" fill="black"/>
<path d="M33 22.533C31.989 23.1915 30.7965 23.7135 29.5545 24.126C26.46 25.158 22.3755 25.746 18 25.746C13.6245 25.746 9.54 25.158 6.444 24.126C5.205 23.715 4.011 23.193 3 22.533V29.5005C3 32.2605 9.7155 34.5 18 34.5C26.2845 34.5 33 32.262 33 29.5005V22.533ZM18 11.5005C9.7155 11.5005 3 9.261 3 6.4995V6.495C3.0075 3.735 9.72 1.5 18 1.5C24.213 1.5 29.544 2.76 31.821 4.554C32.58 5.1525 33 5.8095 33 6.4995C33 9.261 26.2845 11.5005 18 11.5005Z" fill="black"/>
</svg>
