<svg width="36" height="36" viewBox="0 0 36 36" fill="none" xmlns="http://www.w3.org/2000/svg">
<path d="M32.4947 11.8969C31.706 10.0144 30.5585 8.30331 29.1162 6.85902C27.6783 5.41223 25.9702 4.26195 24.0889 3.47347C22.1617 2.66181 20.091 2.24576 17.9998 2.25003H17.9295C15.8026 2.26058 13.7459 2.68245 11.8088 3.51214C9.94367 4.30871 8.2516 5.46104 6.82717 6.90472C5.39888 8.34575 4.26453 10.0509 3.48732 11.925C2.68055 13.874 2.27175 15.9646 2.28498 18.0739C2.29553 20.5137 2.87912 22.936 3.96896 25.1016V30.4453C3.96896 31.3383 4.69318 32.0625 5.58264 32.0625H10.9194C13.0951 33.1604 15.496 33.7381 17.933 33.75H18.0069C20.1092 33.75 22.1447 33.3422 24.0643 32.5442C25.936 31.7651 27.6378 30.6282 29.074 29.1973C30.5225 27.7594 31.6615 26.0789 32.4596 24.2051C33.2858 22.2645 33.7076 20.2008 33.7182 18.0703C33.7252 15.9293 33.3104 13.8516 32.4947 11.8969ZM10.9826 19.6875C10.0545 19.6875 9.29865 18.9317 9.29865 18C9.29865 17.0684 10.0545 16.3125 10.9826 16.3125C11.9108 16.3125 12.6666 17.0684 12.6666 18C12.6666 18.9317 11.9143 19.6875 10.9826 19.6875ZM17.9998 19.6875C17.0717 19.6875 16.3158 18.9317 16.3158 18C16.3158 17.0684 17.0717 16.3125 17.9998 16.3125C18.9279 16.3125 19.6838 17.0684 19.6838 18C19.6838 18.9317 18.9279 19.6875 17.9998 19.6875ZM25.017 19.6875C24.0889 19.6875 23.333 18.9317 23.333 18C23.333 17.0684 24.0889 16.3125 25.017 16.3125C25.9451 16.3125 26.701 17.0684 26.701 18C26.701 18.9317 25.9451 19.6875 25.017 19.6875Z" fill="#07130E"/>
</svg>
