<svg width="117" height="17" viewBox="0 0 117 17" fill="none" xmlns="http://www.w3.org/2000/svg">
<g clip-path="url(#clip0_3666_430)">
<mask id="mask0_3666_430" style="mask-type:luminance" maskUnits="userSpaceOnUse" x="0" y="0" width="16" height="17">
<path d="M0 0.00195313H16.0001V16.002H0V0.00195313Z" fill="white"/>
</mask>
<g mask="url(#mask0_3666_430)">
<path fill-rule="evenodd" clip-rule="evenodd" d="M8.00003 0.00195313C3.58001 0.00195313 0 3.58197 0 8.00199C0 11.542 2.29001 14.532 5.47002 15.592C5.87002 15.662 6.02003 15.422 6.02003 15.212C6.02003 15.022 6.01003 14.392 6.01003 13.722C4.00002 14.092 3.48001 13.232 3.32001 12.782C3.23001 12.552 2.84001 11.842 2.50001 11.652C2.22001 11.502 1.82001 11.132 2.49001 11.122C3.12001 11.112 3.57002 11.702 3.72002 11.942C4.44002 13.152 5.59002 12.812 6.05003 12.602C6.12003 12.082 6.33003 11.732 6.56003 11.532C4.78002 11.332 2.92001 10.642 2.92001 7.58198C2.92001 6.71198 3.23001 5.99198 3.74002 5.43198C3.66002 5.23197 3.38001 4.41197 3.82002 3.31197C3.82002 3.31197 4.49002 3.10197 6.02003 4.13197C6.66003 3.95197 7.34003 3.86197 8.02003 3.86197C8.70004 3.86197 9.38004 3.95197 10.02 4.13197C11.55 3.09197 12.2201 3.31197 12.2201 3.31197C12.6601 4.41197 12.3801 5.23197 12.3001 5.43198C12.8101 5.99198 13.1201 6.70198 13.1201 7.58198C13.1201 10.652 11.25 11.332 9.47004 11.532C9.76004 11.782 10.01 12.262 10.01 13.012C10.01 14.082 10 14.942 10 15.212C10 15.422 10.15 15.672 10.55 15.592C12.1382 15.0558 13.5182 14.0351 14.4958 12.6736C15.4735 11.312 15.9996 9.67818 16.0001 8.00199C16.0001 3.58197 12.4201 0.00195313 8.00003 0.00195313Z" fill="#0E7B5D"/>
</g>
</g>
<path d="M49.7684 1.33001C48.4384 0.710003 46.9984 0.260001 45.4984 0C45.472 0.000375706 45.4468 0.0111588 45.4284 0.0300003C45.2484 0.360002 45.0384 0.790003 44.8984 1.12C43.3073 0.880154 41.6893 0.880154 40.0983 1.12C39.9583 0.780003 39.7483 0.360002 39.5583 0.0300003C39.5483 0.0100003 39.5183 0 39.4883 0C37.9883 0.260001 36.5583 0.710003 35.2183 1.33001C35.2083 1.33001 35.1983 1.34001 35.1883 1.35001C32.4683 5.42002 31.7183 9.38004 32.0883 13.3001C32.0883 13.3201 32.0983 13.3401 32.1183 13.3501C33.9183 14.6701 35.6483 15.4701 37.3583 16.0001C37.3883 16.0101 37.4183 16.0001 37.4283 15.9801C37.8283 15.4301 38.1883 14.8501 38.4983 14.2401C38.5183 14.2001 38.4983 14.1601 38.4583 14.1501C37.8883 13.9301 37.3483 13.6701 36.8183 13.3701C36.7783 13.3501 36.7783 13.2901 36.8083 13.2601C36.9183 13.1801 37.0283 13.0901 37.1383 13.0101C37.1583 12.9901 37.1883 12.9901 37.2083 13.0001C40.6483 14.5701 44.3583 14.5701 47.7584 13.0001C47.7784 12.9901 47.8084 12.9901 47.8284 13.0101C47.9384 13.1001 48.0484 13.1801 48.1584 13.2701C48.1984 13.3001 48.1984 13.3601 48.1484 13.3801C47.6284 13.6901 47.0784 13.9401 46.5084 14.1601C46.4684 14.1701 46.4584 14.2201 46.4684 14.2501C46.7884 14.8601 47.1484 15.4401 47.5384 15.9901C47.5684 16.0001 47.5984 16.0101 47.6284 16.0001C49.3484 15.4701 51.0784 14.6701 52.8784 13.3501C52.8984 13.3401 52.9084 13.3201 52.9084 13.3001C53.3484 8.77004 52.1784 4.84002 49.8084 1.35001C49.7984 1.34001 49.7884 1.33001 49.7684 1.33001ZM39.0183 10.91C37.9883 10.91 37.1283 9.96004 37.1283 8.79004C37.1283 7.62003 37.9683 6.67003 39.0183 6.67003C40.0783 6.67003 40.9183 7.63003 40.9083 8.79004C40.9083 9.96004 40.0683 10.91 39.0183 10.91ZM45.9884 10.91C44.9584 10.91 44.0983 9.96004 44.0983 8.79004C44.0983 7.62003 44.9384 6.67003 45.9884 6.67003C47.0484 6.67003 47.8884 7.63003 47.8784 8.79004C47.8784 9.96004 47.0484 10.91 45.9884 10.91Z" fill="#0E7B5D"/>
<mask id="mask1_3666_430" style="mask-type:luminance" maskUnits="userSpaceOnUse" x="68" y="0" width="17" height="17">
<path d="M68.9998 0.00195313H84.9999V16.002H68.9998V0.00195313Z" fill="white"/>
</mask>
<g mask="url(#mask1_3666_430)">
<path d="M81.5999 0.751956H84.0536L78.6936 6.8937L84.9999 15.2526H80.0627L76.193 10.184L71.7701 15.2526H69.3141L75.0467 8.68113L68.9998 0.753099H74.0627L77.5553 5.38512L81.5999 0.751956ZM80.737 13.7806H82.097L73.3198 2.14739H71.8615L80.737 13.7806Z" fill="#0E7B5D"/>
</g>
<path d="M115.222 0.00195313C115.694 0.00195313 116.146 0.189255 116.479 0.522654C116.813 0.856054 117 1.30824 117 1.77974V14.2242C117 14.6957 116.813 15.1479 116.479 15.4813C116.146 15.8147 115.694 16.002 115.222 16.002H102.778C102.306 16.002 101.854 15.8147 101.521 15.4813C101.187 15.1479 101 14.6957 101 14.2242V1.77974C101 1.30824 101.187 0.856054 101.521 0.522654C101.854 0.189255 102.306 0.00195313 102.778 0.00195313H115.222ZM114.778 13.7798V9.06866C114.778 8.30012 114.472 7.56305 113.929 7.01961C113.386 6.47617 112.649 6.17087 111.88 6.17087C111.124 6.17087 110.244 6.63309 109.818 7.32643V6.33976H107.338V13.7798H109.818V9.39755C109.818 8.7131 110.369 8.1531 111.053 8.1531C111.383 8.1531 111.7 8.28421 111.933 8.51759C112.167 8.75097 112.298 9.0675 112.298 9.39755V13.7798H114.778ZM104.449 4.9442C104.845 4.9442 105.225 4.78686 105.505 4.50681C105.785 4.22675 105.942 3.84691 105.942 3.45086C105.942 2.62419 105.276 1.94863 104.449 1.94863C104.05 1.94863 103.668 2.1069 103.387 2.38862C103.105 2.67034 102.947 3.05244 102.947 3.45086C102.947 4.27753 103.622 4.9442 104.449 4.9442ZM105.684 13.7798V6.33976H103.222V13.7798H105.684Z" fill="#0E7B5D"/>
<defs>
<clipPath id="clip0_3666_430">
<rect width="16" height="16" fill="white" transform="translate(0 0.00195313)"/>
</clipPath>
</defs>
</svg>
